<svg xmlns="http://www.w3.org/2000/svg" xmlns:xlink="http://www.w3.org/1999/xlink" width="134.569mm" height="89.992mm" viewBox="3884 3206.4 529.8 354.3"><title></title><style type="text/css">
*[layerid="1"] {stroke:#000000;fill:#000000;}
*[layerid="2"] {stroke:#000000;fill:#000000;}
*[layerid="3"] {stroke:#000000;fill:#000000;}
*[layerid="4"] {stroke:#000000;fill:#000000;}
*[layerid="5"] {stroke:#000000;fill:#000000;}
*[layerid="6"] {stroke:#000000;fill:#000000;}
*[layerid="7"] {stroke:#000000;fill:#000000;}
*[layerid="8"] {stroke:#000000;fill:#000000;}
*[layerid="9"] {stroke:#000000;fill:#000000;}
*[layerid="10"] {stroke:#000000;fill:#000000;}
*[layerid="11"] {stroke:#000000;fill:#000000;}
*[layerid="12"] {stroke:#000000;fill:#000000;}
*[layerid="13"] {stroke:#000000;fill:#000000;}
*[layerid="14"] {stroke:#000000;fill:#000000;}
*[layerid="15"] {stroke:#000000;fill:#000000;}
*[layerid="19"] {stroke:#000000;fill:#000000;}
*[layerid="21"] {stroke:#000000;fill:#000000;}
*[layerid="22"] {stroke:#000000;fill:#000000;}
*[layerid="23"] {stroke:#000000;fill:#000000;}
*[layerid="24"] {stroke:#000000;fill:#000000;}
*[layerid="25"] {stroke:#000000;fill:#000000;}
*[layerid="26"] {stroke:#000000;fill:#000000;}
*[layerid="27"] {stroke:#000000;fill:#000000;}
*[layerid="28"] {stroke:#000000;fill:#000000;}
*[layerid="29"] {stroke:#000000;fill:#000000;}
*[layerid="30"] {stroke:#000000;fill:#000000;}
*[layerid="31"] {stroke:#000000;fill:#000000;}
*[layerid="32"] {stroke:#000000;fill:#000000;}
*[layerid="33"] {stroke:#000000;fill:#000000;}
*[layerid="34"] {stroke:#000000;fill:#000000;}
*[layerid="35"] {stroke:#000000;fill:#000000;}
*[layerid="36"] {stroke:#000000;fill:#000000;}
*[layerid="37"] {stroke:#000000;fill:#000000;}
*[layerid="38"] {stroke:#000000;fill:#000000;}
*[layerid="39"] {stroke:#000000;fill:#000000;}
*[layerid="40"] {stroke:#000000;fill:#000000;}
*[layerid="41"] {stroke:#000000;fill:#000000;}
*[layerid="42"] {stroke:#000000;fill:#000000;}
*[layerid="43"] {stroke:#000000;fill:#000000;}
*[layerid="44"] {stroke:#000000;fill:#000000;}
*[layerid="45"] {stroke:#000000;fill:#000000;}
*[layerid="46"] {stroke:#000000;fill:#000000;}
*[layerid="47"] {stroke:#000000;fill:#000000;}
*[layerid="48"] {stroke:#000000;fill:#000000;}
*[layerid="49"] {stroke:#000000;fill:#000000;}
*[layerid="50"] {stroke:#000000;fill:#000000;}
*[layerid="51"] {stroke:#000000;fill:#000000;}
*[layerid="52"] {stroke:#000000;fill:#000000;}
*[layerid="99"] {stroke:#000000;fill:#000000;}
*[layerid="100"] {stroke:#000000;fill:#000000;}
*[layerid="101"] {stroke:#000000;fill:#000000;}
*[layerid="Hole"] {stroke:#000000;fill:#000000;}
*[layerid="DRCError"] {stroke:#000000;fill:#000000;}
*[fill="none"] {fill: none;}
*[stroke="none"] {stroke: none;}
path, polyline, polygon, line {stroke-linecap:round;}
g[c_partid="part_pad"][layerid="1"] ellipse:not([c_etype="pad_outer"]) {fill:#000000;}
g[c_partid="part_pad"][layerid="1"] polygon:not([c_etype="pad_outer"]) {fill:#000000;}
g[c_partid="part_pad"][layerid="1"] polyline:not([c_etype="pad_outer"]) {stroke:#000000;}
g[c_partid="part_pad"][layerid="2"] ellipse:not([c_etype="pad_outer"]) {fill:#000000;}
g[c_partid="part_pad"][layerid="2"] polygon:not([c_etype="pad_outer"]) {fill:#000000;}
g[c_partid="part_pad"][layerid="2"] polyline:not([c_etype="pad_outer"]) {stroke:#000000;}
g[c_partid="part_pad"][layerid="11"] ellipse:not([c_etype="pad_outer"]) {fill:#000000;}
g[c_partid="part_pad"][layerid="11"] polygon:not([c_etype="pad_outer"]) {fill:#000000;}
g[c_partid="part_pad"][layerid="11"] polyline:not([c_etype="pad_outer"]) {stroke:#000000;}
g[c_partid="part_pad"][layerid="11"] circle {fill:#FFFFFF;}
g[c_partid="part_pad"][layerid="11"] > polyline:nth-of-type(2) {stroke:#FFFFFF;}
g[c_partid="part_pad"][layerid="11"][c_shape="ELLIPSE"]  polyline:nth-last-of-type(1) {stroke:#FFFFFF;}
g[c_partid="part_pad"][layerid="11"][c_shape="RECT"]  polyline:nth-last-of-type(1) {stroke:#FFFFFF;}
g[c_partid="part_pad"][layerid="11"][c_shape="POLYGON"]  polyline:nth-last-of-type(1) {stroke:#FFFFFF;}
g[c_partid="part_via"] > * + circle, #gCurParts g[c_partid="part_via"] > * + circle {fill:#FFFFFF;}
g[c_partid="part_pad"] > polygon[c_etype="pad_outer"], #gCurParts g[c_partid="part_pad"] > polygon[c_etype="pad_outer"] {stroke-linejoin: miter;stroke-miterlimit: 100;}
g[c_partid="part_hole"] > circle {fill: #FFFFFF;}path, polyline, polygon {stroke-linejoin:round;}
rect, circle, ellipse, polyline, line, polygon, path {shape-rendering:crispEdges;}
</style>
<rect x="3884" y="3206.4" width="529.8" height="354.3" fill="#FFFFFF" stroke="none"/><polyline points="4197.083 3337.8312 4217.4389 3317.475" stroke-width="1"  stroke-linecap="round" fill="none" layerid="1" net="SDA" id="gge11547" locked="0" /><polyline points="4158.8227 3340.3009 4198.5429 3340.3009 4207.833 3330.6212" stroke-width="1"  stroke-linecap="round" fill="none" layerid="1" net="SCL" id="gge11544" locked="0" /><polyline points="4198.3842 3346.3697 4209.2143 3335.41" stroke-width="1"  stroke-linecap="round" fill="none" layerid="1" net="SCL" id="gge11541" locked="0" /><polyline points="4198.3842 3351.0941 4209.2099 3340.1376" stroke-width="1"  stroke-linecap="round" fill="none" layerid="1" net="SCL" id="gge11538" locked="0" /><polyline points="4204.29 3356.9999 4215.1098 3346.0397" stroke-width="1"  stroke-linecap="round" fill="none" layerid="1" net="SCL" id="gge11535" locked="0" /><polyline points="4201.5336 3353.85 4212.3593 3342.8937" stroke-width="1"  stroke-linecap="round" fill="none" layerid="1" net="SCL" id="gge11532" locked="0" /><polyline points="4198.1542 3351.2577 4187.3281 3340.3009" stroke-width="1"  stroke-linecap="round" fill="none" layerid="1" net="SCL" id="gge11529" locked="0" /><polyline points="4198.5473 3346.5577 4192.4462 3340.3009" stroke-width="1"  stroke-linecap="round" fill="none" layerid="1" net="SCL" id="gge11526" locked="0" /><polyline points="4192.642 3351.2577 4181.8164 3340.3009" stroke-width="1"  stroke-linecap="round" fill="none" layerid="1" net="SCL" id="gge11523" locked="0" /><polyline points="4187.1303 3351.2577 4176.3046 3340.3009" stroke-width="1"  stroke-linecap="round" fill="none" layerid="1" net="SCL" id="gge11520" locked="0" /><polyline points="4198.5473 3351.2577 4181.6186 3351.2577 4170.7929 3340.3009" stroke-width="1"  stroke-linecap="round" fill="none" layerid="1" net="SCL" id="gge11517" locked="0" /><polyline points="4198.5473 3340.3009 4198.5473 3351.2577 4207.833 3360.5431" stroke-width="1"  stroke-linecap="round" fill="none" layerid="1" net="SCL" id="gge11514" locked="0" /><polyline points="4170.9023 3337.8312 4191.2583 3317.475" stroke-width="1"  stroke-linecap="round" fill="none" layerid="1" net="SDA" id="gge11511" locked="0" /><polyline points="4175.8027 3337.8312 4196.1586 3317.475" stroke-width="1"  stroke-linecap="round" fill="none" layerid="1" net="SDA" id="gge11508" locked="0" /><polyline points="4180.8027 3337.8312 4201.1586 3317.475" stroke-width="1"  stroke-linecap="round" fill="none" layerid="1" net="SDA" id="gge11505" locked="0" /><polyline points="4186.7026 3337.8312 4207.0585 3317.475" stroke-width="1"  stroke-linecap="round" fill="none" layerid="1" net="SDA" id="gge11502" locked="0" /><polyline points="4191.9648 3337.8312 4212.3208 3317.475" stroke-width="1"  stroke-linecap="round" fill="none" layerid="1" net="SDA" id="gge11499" locked="0" /><polyline points="4159.0298 3340.5408 4198.75 3340.5408" stroke-width="1"  stroke-linecap="round" fill="none" layerid="1" net="SCL" id="gge11223" locked="0" /><polyline points="4094.3298 3347.5494 4101.3718 3340.5074 4201.6778 3340.5074" stroke-width="1"  stroke-linecap="round" fill="none" layerid="1" net="GND" id="gge9802" locked="0" /><polyline points="4068.8 3386.25 4197.29 3386.25 4217.646 3406.606" stroke-width="1"  stroke-linecap="round" fill="none" layerid="1" net="SDA" id="gge10368" locked="0" /><polyline points="4075.86 3383.78 4159.03 3383.78 4198.75 3383.78 4208.04 3393.46" stroke-width="1"  stroke-linecap="round" fill="none" layerid="1" net="SCL" id="gge10410" locked="0" /><polyline points="4198.59 3377.71 4209.42 3388.67" stroke-width="1"  stroke-linecap="round" fill="none" layerid="1" net="SCL" id="gge10449" locked="0" /><polyline points="4198.5915 3372.987 4209.4172 3383.9435" stroke-width="1"  stroke-linecap="round" fill="none" layerid="1" net="SCL" id="gge10458" locked="0" /><polyline points="4204.4969 3367.0814 4215.3169 3378.0414" stroke-width="1"  stroke-linecap="round" fill="none" layerid="1" net="SCL" id="gge10476" locked="0" /><polyline points="4201.7407 3370.2309 4212.5664 3381.1874" stroke-width="1"  stroke-linecap="round" fill="none" layerid="1" net="SCL" id="gge10467" locked="0" /><polyline points="4198.3611 3372.8235 4187.5354 3383.78" stroke-width="1"  stroke-linecap="round" fill="none" layerid="1" net="SCL" id="gge10434" locked="0" /><polyline points="4198.7546 3377.5235 4192.6535 3383.78" stroke-width="1"  stroke-linecap="round" fill="none" layerid="1" net="SCL" id="gge10437" locked="0" /><polyline points="4192.8493 3372.8235 4182.0236 3383.78" stroke-width="1"  stroke-linecap="round" fill="none" layerid="1" net="SCL" id="gge10431" locked="0" /><polyline points="4187.3375 3372.8235 4176.5118 3383.78" stroke-width="1"  stroke-linecap="round" fill="none" layerid="1" net="SCL" id="gge10428" locked="0" /><polyline points="4198.7546 3372.8236 4181.8255 3372.8236 4171 3383.78" stroke-width="1"  stroke-linecap="round" fill="none" layerid="1" net="SCL" id="gge10416" locked="0" /><polyline points="4198.7546 3383.78 4198.7546 3372.8236 4208.0402 3363.538" stroke-width="1"  stroke-linecap="round" fill="none" layerid="1" net="SCL" id="gge10413" locked="0" /><polyline points="4171.1096 3386.25 4191.4655 3406.606" stroke-width="1"  stroke-linecap="round" fill="none" layerid="1" net="SDA" id="gge10398" locked="0" /><polyline points="4176.0096 3386.25 4196.3655 3406.606" stroke-width="1"  stroke-linecap="round" fill="none" layerid="1" net="SDA" id="gge10395" locked="0" /><polyline points="4181.0096 3386.25 4201.3655 3406.606" stroke-width="1"  stroke-linecap="round" fill="none" layerid="1" net="SDA" id="gge10392" locked="0" /><polyline points="4186.9096 3386.25 4207.2655 3406.606" stroke-width="1"  stroke-linecap="round" fill="none" layerid="1" net="SDA" id="gge10389" locked="0" /><polyline points="4192.1719 3386.25 4212.5279 3406.606" stroke-width="1"  stroke-linecap="round" fill="none" layerid="1" net="SDA" id="gge10383" locked="0" /><polyline points="4090.0808 3347.5494 4094.3298 3347.5494" stroke-width="1"  stroke-linecap="round" fill="none" layerid="1" net="GND" id="gge9799" locked="0" /><polyline points="4080.0808 3347.5494 4090.0808 3347.5494" stroke-width="1"  stroke-linecap="round" fill="none" layerid="1" net="GND" id="gge9805" locked="0" /><polyline points="4070.0808 3347.5494 4080.0808 3347.5494" stroke-width="1"  stroke-linecap="round" fill="none" layerid="1" net="GND" id="gge9811" locked="0" /><polyline points="4060.0808 3347.5494 4070.0808 3347.5494" stroke-width="1"  stroke-linecap="round" fill="none" layerid="1" net="GND" id="gge9814" locked="0" /><polyline points="4037.3058 3362.4664 4041.4048 3362.4664" stroke-width="1"  stroke-linecap="round" fill="none" layerid="1" net="H1_7" id="gge9823" locked="0" /><polyline points="4048.79 3347.59 4060.1 3347.55" stroke-width="1"  stroke-linecap="round" fill="none" layerid="1" net="GND" id="gge9796" locked="0" /><polyline points="4032.1487 3372.466 4032.0559 3353.9908" stroke-width="1"  stroke-linecap="round" fill="none" layerid="1" net="VCC" id="gge9898" locked="0" /><polyline points="4070.4418 3372.6916 4042.8827 3372.6916" stroke-width="1"  stroke-linecap="round" fill="none" layerid="1" net="VCC" id="gge9859" locked="0" /><polyline points="4084.2213 3382.042 4079.3006 3382.0982" stroke-width="1"  stroke-linecap="round" fill="none" layerid="1" net="VCC" id="gge9940" locked="0" /><polyline points="4099.97 3379.09 4105.38 3378.99" stroke-width="1"  stroke-linecap="round" fill="none" layerid="1" net="VCC" id="gge10009" locked="0" /><polyline points="4077.3315 3369.2467 4053.2174 3369.2467" stroke-width="1"  stroke-linecap="round" fill="none" layerid="1" net="H1_7" id="gge9826" locked="0" /><polyline points="4080.0992 3372.0026 4080.1 3377.5494" stroke-width="1"  stroke-linecap="round" fill="none" layerid="1" net="H1_7" id="gge9832" locked="0" /><polyline points="4105.3822 3344.738 4104.8342 3344.738 4082.1109 3367.4613" stroke-width="1"  stroke-linecap="round" fill="none" layerid="1" net="H1_7" id="gge10135" locked="0" /><polyline points="4047.319 3337.8857 4177.7252 3337.7506" stroke-width="1"  stroke-linecap="round" fill="none" layerid="1" net="VCC" id="gge9787" locked="0" /><g c_partid="part_pad" c_etype="pinpart" c_origin="4242.499,3378.85" layerid="1" number="2" net="SCL" plated ="Y"  id="gge1798" locked="0" c_rotation="270" c_width="31.2992" c_height="68.8976" title="SCL" c_shape="RECT" pasteexpansion="0" solderexpansion="0.2"><polygon  c_etype="pad_shell" points="4276.9478 3363.2004 4276.9478 3394.4996 4208.0502 3394.4996 4208.0502 3363.2004" layerid="1" stroke-width="0" /><circle c_etype="pad_hole" cx="4242.4992" cy="3378.8504" r="0" layerid="1" stroke-width="0"/></g><g c_partid="part_pad" c_etype="pinpart" c_origin="4242.2921,3345.2311" layerid="1" number="2" net="SCL" plated ="Y"  id="gge11379" locked="0" c_rotation="270" c_width="31.2992" c_height="68.8976" title="SCL" c_shape="RECT" pasteexpansion="0" solderexpansion="0.2"><polygon  c_etype="pad_shell" points="4276.7409 3360.8808 4276.7409 3329.5816 4207.8433 3329.5816 4207.8433 3360.8808" layerid="1" stroke-width="0" /><circle c_etype="pad_hole" cx="4242.2923" cy="3345.2307" r="0" layerid="1" stroke-width="0"/></g><path d="M4048.79,3347.59 A17.0376,17.0376 0 0 0 4037.31,3352.47" locked="0"  fill="none" stroke-width="1" c_helper_type="arc2" net="GND" layerid="1" id="gge9838" /><path d="M4041.4048,3362.4664 A2.9711,2.9711 0 0 1 4043.4446,3363.2906" locked="0"  fill="none" stroke-width="1" c_helper_type="arc2" net="H1_7" layerid="1" id="gge9847" /><path d="M4043.4446,3363.2906 A13.8828,13.8828 0 0 0 4053.22,3369.25" locked="0"  fill="none" stroke-width="1" c_helper_type="arc2" net="H1_7" layerid="1" id="gge9853" /><path d="M4032.056,3354.0214 A16.1186,16.1186 0 0 1 4047.319,3337.8857" locked="0"  fill="none" stroke-width="1" c_helper_type="arc2" net="VCC" layerid="1" id="gge9916" /><path d="M4084.2213,3382.042 A7.7041,7.7041 0 0 0 4090.08,3377.55" locked="0"  fill="none" stroke-width="1" c_helper_type="arc2" net="VCC" layerid="1" id="gge9970" /><path d="M4070.4418,3372.6916 A4.3668,4.3668 0 0 1 4074.8709,3377.6128" locked="0"  fill="none" stroke-width="1" c_helper_type="arc2" net="VCC" layerid="1" id="gge9994" /><path d="M4074.8709,3377.6128 A4.4617,4.4617 0 0 0 4079.3,3382.1" locked="0"  fill="none" stroke-width="1" c_helper_type="arc2" net="VCC" layerid="1" id="gge9997" /><path d="M 4069.9496 3377.6128 A 5.8057 5.8057 0 0 0 4075.8646 3383.7833" locked="0"  fill="none" stroke-width="1" c_helper_type="arc2" net="SCL" layerid="1" id="gge9985" /><path d="M4090.081,3377.549 A3.2867,3.2867 0 0 1 4095.0481,3376.6286" locked="0"  fill="none" stroke-width="1" c_helper_type="arc2" net="VCC" layerid="1" id="gge10003" /><path d="M4095.0481,3376.6286 A7.0118,7.0118 0 0 0 4099.9693,3379.0892" locked="0"  fill="none" stroke-width="1" c_helper_type="arc2" net="VCC" layerid="1" id="gge10006" /><path d="M4060.081,3377.549 A9.4779,9.4779 0 0 0 4068.78,3386.25" locked="0"  fill="none" stroke-width="1" c_helper_type="arc2" net="SDA" layerid="1" id="gge10021" /><circle cx="4037.306" cy="3372.466" r="5.157" stroke-width="1" fill="none" layerid="1" id="gge9883" locked="0"  net="SW_3" transformarc="circle_gge9886,circle_gge9889"/><circle cx="4080.087" cy="3369.247" r="2.699" stroke-width="1" fill="none" layerid="1" id="gge10033" locked="0"  net="H1_7" transformarc="circle_gge10036,circle_gge10039"/><path d="M 4195.8354 3417.8688 L 4174.1819 3396.2153 L 4174.1819 3396.2152 L 4276.9378 3395.8215 L 4276.9378 3417.4751 Z" stroke-width="0"   net="SDA" type="solid" layerid="1" id="gge10329" locked="0" c_teardrop="" c_targetpad="" c_targetwire="" /><path d="M 4195.6285 3306.2122 L 4173.975 3327.8659 L 4173.975 3327.866 L 4276.7309 3328.2597 L 4276.7309 3306.6059 Z " stroke-width="0"   net="SDA" type="solid" layerid="1" id="gge11376" locked="0" c_teardrop="" c_targetpad="" c_targetwire="" /><g c_partid="part_pad" c_etype="pinpart" c_origin="4090.081,3347.549" layerid="11" number="1" net="GND" plated ="Y"  id="gge72" locked="0" c_rotation="180" c_width="6.3" c_height="6.3" title="GND" c_shape="RECT" pasteexpansion="0" solderexpansion="0.2"><polygon  c_etype="pad_shell" points="4093.2312 3350.6988 4086.9312 3350.6988 4086.9312 3344.3988 4093.2312 3344.3988" layerid="11" stroke-width="0" /><circle c_etype="pad_hole" cx="4090.0812" cy="3347.5488" r="1.6732" layerid="11" stroke-width="0"/></g><g c_partid="part_pad" c_etype="pinpart" c_origin="4080.081,3347.549" layerid="11" number="2" net="GND" plated ="Y"  id="gge87" locked="0" c_rotation="180" c_width="6.3" c_height="6.3" title="GND" c_shape="ELLIPSE" pasteexpansion="0" solderexpansion="0.2"><ellipse c_etype="pad_shell" cx="4080.081" cy="3347.549" rx="3.15" ry="3.15" layerid="11" stroke-width="0"/><circle c_etype="pad_hole" cx="4080.0812" cy="3347.5488" r="1.6732" layerid="11" stroke-width="0"/></g><g c_partid="part_pad" c_etype="pinpart" c_origin="4070.081,3347.549" layerid="11" number="3" net="GND" plated ="Y"  id="gge102" locked="0" c_rotation="180" c_width="6.3" c_height="6.3" title="GND" c_shape="ELLIPSE" pasteexpansion="0" solderexpansion="0.2"><ellipse c_etype="pad_shell" cx="4070.081" cy="3347.549" rx="3.15" ry="3.15" layerid="11" stroke-width="0"/><circle c_etype="pad_hole" cx="4070.0812" cy="3347.5488" r="1.6732" layerid="11" stroke-width="0"/></g><g c_partid="part_pad" c_etype="pinpart" c_origin="4060.081,3347.549" layerid="11" number="4" net="GND" plated ="Y"  id="gge117" locked="0" c_rotation="180" c_width="6.3" c_height="6.3" title="GND" c_shape="ELLIPSE" pasteexpansion="0" solderexpansion="0.2"><ellipse c_etype="pad_shell" cx="4060.081" cy="3347.549" rx="3.15" ry="3.15" layerid="11" stroke-width="0"/><circle c_etype="pad_hole" cx="4060.0812" cy="3347.5488" r="1.6732" layerid="11" stroke-width="0"/></g><g c_partid="part_pad" c_etype="pinpart" c_origin="4060.081,3377.549" layerid="11" number="5" net="SDA" plated ="Y"  id="gge132" locked="0" c_rotation="180" c_width="6.3" c_height="6.3" title="SDA" c_shape="ELLIPSE" pasteexpansion="0" solderexpansion="0.2"><ellipse c_etype="pad_shell" cx="4060.081" cy="3377.549" rx="3.15" ry="3.15" layerid="11" stroke-width="0"/><circle c_etype="pad_hole" cx="4060.0812" cy="3377.5488" r="1.6732" layerid="11" stroke-width="0"/></g><g c_partid="part_pad" c_etype="pinpart" c_origin="4070.081,3377.549" layerid="11" number="6" net="SCL" plated ="Y"  id="gge147" locked="0" c_rotation="180" c_width="6.3" c_height="6.3" title="SCL" c_shape="ELLIPSE" pasteexpansion="0" solderexpansion="0.2"><ellipse c_etype="pad_shell" cx="4070.081" cy="3377.549" rx="3.15" ry="3.15" layerid="11" stroke-width="0"/><circle c_etype="pad_hole" cx="4070.0812" cy="3377.5488" r="1.6732" layerid="11" stroke-width="0"/></g><g c_partid="part_pad" c_etype="pinpart" c_origin="4080.081,3377.549" layerid="11" number="7" net="H1_7" plated ="Y"  id="gge162" locked="0" c_rotation="180" c_width="6.3" c_height="6.3" title="H1_7" c_shape="ELLIPSE" pasteexpansion="0" solderexpansion="0.2"><ellipse c_etype="pad_shell" cx="4080.081" cy="3377.549" rx="3.15" ry="3.15" layerid="11" stroke-width="0"/><circle c_etype="pad_hole" cx="4080.0812" cy="3377.5488" r="1.6732" layerid="11" stroke-width="0"/></g><g c_partid="part_pad" c_etype="pinpart" c_origin="4090.081,3377.549" layerid="11" number="8" net="VCC" plated ="Y"  id="gge177" locked="0" c_rotation="180" c_width="6.3" c_height="6.3" title="VCC" c_shape="ELLIPSE" pasteexpansion="0" solderexpansion="0.2"><ellipse c_etype="pad_shell" cx="4090.081" cy="3377.549" rx="3.15" ry="3.15" layerid="11" stroke-width="0"/><circle c_etype="pad_hole" cx="4090.0812" cy="3377.5488" r="1.6732" layerid="11" stroke-width="0"/></g><g c_partid="part_pad" c_etype="pinpart" c_origin="4105.382,3378.99" layerid="11" number="1" net="VCC" plated ="Y"  id="gge1859" locked="0" c_rotation="90" c_width="6" c_height="6" title="VCC" c_shape="ELLIPSE" pasteexpansion="0" solderexpansion="0.2"><ellipse c_etype="pad_shell" cx="4105.382" cy="3378.99" rx="3" ry="3" layerid="11" stroke-width="0"/><circle c_etype="pad_hole" cx="4105.3827" cy="3378.9904" r="1.7992" layerid="11" stroke-width="0"/></g><g c_partid="part_pad" c_etype="pinpart" c_origin="4105.382,3344.738" layerid="11" number="2" net="H1_7" plated ="Y"  id="gge1874" locked="0" c_rotation="90" c_width="6" c_height="6" title="H1_7" c_shape="ELLIPSE" pasteexpansion="0" solderexpansion="0.2"><ellipse c_etype="pad_shell" cx="4105.382" cy="3344.738" rx="3" ry="3" layerid="11" stroke-width="0"/><circle c_etype="pad_hole" cx="4105.3827" cy="3344.7396" r="1.7992" layerid="11" stroke-width="0"/></g><g c_partid="part_pad" c_etype="pinpart" c_origin="4037.306,3362.466" layerid="11" number="2" net="H1_7" plated ="Y"  id="gge1919" locked="0" c_rotation="0" c_width="6" c_height="6" title="H1_7" c_shape="RECT" pasteexpansion="0" solderexpansion="0.4"><polygon  c_etype="pad_shell" points="4034.306 3359.4655 4040.306 3359.4655 4040.306 3365.4655 4034.306 3365.4655" layerid="11" stroke-width="0" /><circle c_etype="pad_hole" cx="4037.306" cy="3362.4655" r="1.3996" layerid="11" stroke-width="0"/></g><g c_partid="part_pad" c_etype="pinpart" c_origin="4037.306,3352.466" layerid="11" number="1" net="GND" plated ="Y"  id="gge1934" locked="0" c_rotation="0" c_width="6" c_height="6" title="GND" c_shape="ELLIPSE" pasteexpansion="0" solderexpansion="0.2"><ellipse c_etype="pad_shell" cx="4037.306" cy="3352.466" rx="3" ry="3" layerid="11" stroke-width="0"/><circle c_etype="pad_hole" cx="4037.306" cy="3352.4655" r="1.3996" layerid="11" stroke-width="0"/></g><g c_partid="part_pad" c_etype="pinpart" c_origin="4037.306,3372.466" layerid="11" number="3" net="SW_3" plated ="Y"  id="gge1949" locked="0" c_rotation="0" c_width="6" c_height="6" title="SW_3" c_shape="ELLIPSE" pasteexpansion="0" solderexpansion="0.2"><ellipse c_etype="pad_shell" cx="4037.306" cy="3372.466" rx="3" ry="3" layerid="11" stroke-width="0"/><circle c_etype="pad_hole" cx="4037.306" cy="3372.4655" r="1.3996" layerid="11" stroke-width="0"/></g><g c_partid="part_hole" c_etype="pinpart" c_shapetype="group" c_origin="4043.517,3323.093" layerid="11" id="gge9471" locked="1" ><circle cx="4043.517" cy="3323.093" r="4"  stroke-width="1" fill-opacity="0" /></g><g c_partid="part_hole" c_etype="pinpart" c_shapetype="group" c_origin="4043.233,3400.896" layerid="11" id="gge9501" locked="1" ><circle cx="4043.233" cy="3400.896" r="4"  stroke-width="1" fill-opacity="0" /></g><polyline points="4095.5532 3382.2338 4054.6082 3382.2338 4054.6082 3342.0758 4095.5532 3342.0758 4095.5532 3382.2338" stroke-width="1"  stroke-linecap="round" fill="none" layerid="3" net="" id="gge54" locked="0" /><polyline points="4105.3827 3371.3653 4105.3827 3373.8653" stroke-width="1"  stroke-linecap="round" fill="none" layerid="3" net="" id="gge1832" locked="0" /><polyline points="4105.3827 3352.3653 4105.3827 3349.8653" stroke-width="1"  stroke-linecap="round" fill="none" layerid="3" net="" id="gge1835" locked="0" /><polyline points="4100.4617 3371.1163 4100.4617 3352.6123 4110.3047 3352.6123 4110.3047 3371.1163 4100.4617 3371.1163" stroke-width="1"  stroke-linecap="round" fill="none" layerid="3" net="" id="gge1838" locked="0" /><polyline points="4030.306 3345.4655 4044.306 3345.4655" stroke-width="1"  stroke-linecap="round" fill="none" layerid="3" net="S$26" id="gge1907" locked="0" /><polyline points="4044.306 3345.4655 4044.306 3379.4655" stroke-width="1"  stroke-linecap="round" fill="none" layerid="3" net="S$28" id="gge1910" locked="0" /><polyline points="4044.306 3379.4655 4030.306 3379.4655" stroke-width="1"  stroke-linecap="round" fill="none" layerid="3" net="S$30" id="gge1913" locked="0" /><polyline points="4030.306 3379.4655 4030.306 3345.4655" stroke-width="1"  stroke-linecap="round" fill="none" layerid="3" net="S$32" id="gge1916" locked="0" /><g c_partid="part_pcbtext" c_etype="" c_origin="4031.773,3394.045" c_rotation="0" c_mirror="0" id="gge9" locked="0" layerid="3" c_shapetype="group" display="none"><path c_fontsize="4.5" c_fontfamily="" c_text="I2C EEPROM - SOCKET" d="M 4031.7738 3389.505 L 4031.7738 3393.795 M 4033.3238 3390.525 L 4033.3238 3390.325 L 4033.5338 3389.915 L 4033.7338 3389.705 L 4034.1438 3389.505 L 4034.9638 3389.505 L 4035.3738 3389.705 L 4035.5738 3389.915 L 4035.7838 3390.325 L 4035.7838 3390.735 L 4035.5738 3391.145 L 4035.1738 3391.755 L 4033.1238 3393.795 L 4035.9838 3393.795 M 4040.4038 3390.525 L 4040.2038 3390.115 L 4039.7938 3389.705 L 4039.3838 3389.505 L 4038.5638 3389.505 L 4038.1538 3389.705 L 4037.7438 3390.115 L 4037.5438 3390.525 L 4037.3338 3391.145 L 4037.3338 3392.165 L 4037.5438 3392.775 L 4037.7438 3393.185 L 4038.1538 3393.595 L 4038.5638 3393.795 L 4039.3838 3393.795 L 4039.7938 3393.595 L 4040.2038 3393.185 L 4040.4038 3392.775 M 4044.9038 3389.505 L 4044.9038 3393.795 M 4044.9038 3389.505 L 4047.5638 3389.505 M 4044.9038 3391.545 L 4046.5438 3391.545 M 4044.9038 3393.795 L 4047.5638 3393.795 M 4048.9138 3389.505 L 4048.9138 3393.795 M 4048.9138 3389.505 L 4051.5738 3389.505 M 4048.9138 3391.545 L 4050.5538 3391.545 M 4048.9138 3393.795 L 4051.5738 3393.795 M 4052.9238 3389.505 L 4052.9238 3393.795 M 4052.9238 3389.505 L 4054.7638 3389.505 L 4055.3738 3389.705 L 4055.5838 3389.915 L 4055.7838 3390.325 L 4055.7838 3390.935 L 4055.5838 3391.345 L 4055.3738 3391.545 L 4054.7638 3391.755 L 4052.9238 3391.755 M 4057.1338 3389.505 L 4057.1338 3393.795 M 4057.1338 3389.505 L 4058.9738 3389.505 L 4059.5938 3389.705 L 4059.7938 3389.915 L 4060.0038 3390.325 L 4060.0038 3390.735 L 4059.7938 3391.145 L 4059.5938 3391.345 L 4058.9738 3391.545 L 4057.1338 3391.545 M 4058.5738 3391.545 L 4060.0038 3393.795 M 4062.5738 3389.505 L 4062.1738 3389.705 L 4061.7638 3390.115 L 4061.5538 3390.525 L 4061.3538 3391.145 L 4061.3538 3392.165 L 4061.5538 3392.775 L 4061.7638 3393.185 L 4062.1738 3393.595 L 4062.5738 3393.795 L 4063.3938 3393.795 L 4063.8038 3393.595 L 4064.2138 3393.185 L 4064.4238 3392.775 L 4064.6238 3392.165 L 4064.6238 3391.145 L 4064.4238 3390.525 L 4064.2138 3390.115 L 4063.8038 3389.705 L 4063.3938 3389.505 L 4062.5738 3389.505 M 4065.9738 3389.505 L 4065.9738 3393.795 M 4065.9738 3389.505 L 4067.6138 3393.795 M 4069.2438 3389.505 L 4067.6138 3393.795 M 4069.2438 3389.505 L 4069.2438 3393.795 M 4073.7438 3391.955 L 4077.4238 3391.955 M 4084.7938 3390.115 L 4084.3838 3389.705 L 4083.7738 3389.505 L 4082.9538 3389.505 L 4082.3338 3389.705 L 4081.9238 3390.115 L 4081.9238 3390.525 L 4082.1338 3390.935 L 4082.3338 3391.145 L 4082.7438 3391.345 L 4083.9738 3391.755 L 4084.3838 3391.955 L 4084.5838 3392.165 L 4084.7938 3392.575 L 4084.7938 3393.185 L 4084.3838 3393.595 L 4083.7738 3393.795 L 4082.9538 3393.795 L 4082.3338 3393.595 L 4081.9238 3393.185 M 4087.3738 3389.505 L 4086.9638 3389.705 L 4086.5538 3390.115 L 4086.3438 3390.525 L 4086.1438 3391.145 L 4086.1438 3392.165 L 4086.3438 3392.775 L 4086.5538 3393.185 L 4086.9638 3393.595 L 4087.3738 3393.795 L 4088.1838 3393.795 L 4088.5938 3393.595 L 4089.0038 3393.185 L 4089.2138 3392.775 L 4089.4138 3392.165 L 4089.4138 3391.145 L 4089.2138 3390.525 L 4089.0038 3390.115 L 4088.5938 3389.705 L 4088.1838 3389.505 L 4087.3738 3389.505 M 4093.8338 3390.525 L 4093.6238 3390.115 L 4093.2238 3389.705 L 4092.8138 3389.505 L 4091.9938 3389.505 L 4091.5838 3389.705 L 4091.1738 3390.115 L 4090.9738 3390.525 L 4090.7638 3391.145 L 4090.7638 3392.165 L 4090.9738 3392.775 L 4091.1738 3393.185 L 4091.5838 3393.595 L 4091.9938 3393.795 L 4092.8138 3393.795 L 4093.2238 3393.595 L 4093.6238 3393.185 L 4093.8338 3392.775 M 4095.1838 3389.505 L 4095.1838 3393.795 M 4098.0438 3389.505 L 4095.1838 3392.365 M 4096.2038 3391.345 L 4098.0438 3393.795 M 4099.3938 3389.505 L 4099.3938 3393.795 M 4099.3938 3389.505 L 4102.0538 3389.505 M 4099.3938 3391.545 L 4101.0338 3391.545 M 4099.3938 3393.795 L 4102.0538 3393.795 M 4104.8338 3389.505 L 4104.8338 3393.795 M 4103.4038 3389.505 L 4106.2738 3389.505" fill="none"  stroke-width="0.6" c_note="note_name" /></g><g c_partid="part_pcbtext" c_etype="" c_origin="4075.081,3383.549" c_rotation="180" c_mirror="0" id="gge15" locked="0" layerid="3" c_shapetype="group" ><path c_fontsize="4.5" c_fontfamily="" c_text="H1" d="M 4075.0812 3388.0888 L 4075.0812 3383.7988 M 4072.2212 3388.0888 L 4072.2212 3383.7988 M 4075.0812 3386.0488 L 4072.2212 3386.0488 M 4070.8712 3387.2688 L 4070.4612 3387.4788 L 4069.8412 3388.0888 L 4069.8412 3383.7988" fill="none"  stroke-width="0.6" c_note="note_pre" /></g><g c_partid="part_pcbtext" c_etype="" c_origin="4085.398,3362.731" c_rotation="90" c_mirror="0" id="gge1997" locked="0" layerid="3" c_shapetype="group" display="none"><path c_fontsize="4.5" c_fontfamily="NotoSerifCJKsc-Medium" c_text="10KΩ ±5%" d="M 4085.1781 3361.4008 C 4084.9381 3361.4108 4084.7081 3361.4108 4084.4781 3361.4108 L 4083.0981 3361.4108 L 4082.4681 3361.3908 L 4082.4181 3361.4508 L 4082.6581 3362.3508 L 4082.8081 3362.3508 L 4082.7581 3361.7708 L 4084.4781 3361.7708 C 4084.7081 3361.7708 4084.9381 3361.7708 4085.1781 3361.7808 L 4085.2581 3362.4008 L 4085.3981 3362.4008 L 4085.3981 3360.7908 L 4085.2581 3360.7908 Z M 4083.9081 3359.9708 C 4082.8581 3359.9708 4082.5781 3359.7108 4082.5781 3359.4308 C 4082.5781 3359.1608 4082.8581 3358.9108 4083.9081 3358.9108 C 4084.9981 3358.9108 4085.2881 3359.1608 4085.2881 3359.4308 C 4085.2881 3359.7108 4084.9981 3359.9708 4083.9081 3359.9708 Z M 4082.4081 3359.4308 C 4082.4081 3359.9008 4082.8181 3360.3508 4083.9081 3360.3508 C 4085.0381 3360.3508 4085.4581 3359.9008 4085.4581 3359.4308 C 4085.4581 3358.9708 4085.0381 3358.5208 4083.9081 3358.5208 C 4082.8181 3358.5208 4082.4081 3358.9708 4082.4081 3359.4308 Z M 4085.2081 3355.7608 L 4083.5781 3356.6708 L 4082.6681 3355.9208 L 4082.6181 3355.5108 L 4082.4681 3355.5108 L 4082.4681 3356.5108 L 4082.6181 3356.5108 L 4082.6781 3356.1608 L 4084.1281 3357.3408 L 4083.8281 3357.3408 C 4083.4381 3357.3408 4083.0381 3357.3408 4082.6581 3357.3308 L 4082.6181 3356.9108 L 4082.4681 3356.9108 L 4082.4681 3358.1408 L 4082.6181 3358.1408 L 4082.6581 3357.7308 C 4083.0481 3357.7308 4083.4381 3357.7308 4083.8281 3357.7308 L 4084.0381 3357.7308 C 4084.4381 3357.7308 4084.8181 3357.7308 4085.1981 3357.7308 L 4085.2481 3358.1408 L 4085.3981 3358.1408 L 4085.3981 3356.9208 L 4085.2481 3356.9208 L 4085.1981 3357.3308 C 4084.9081 3357.3408 4084.6281 3357.3408 4084.3781 3357.3408 L 4083.8581 3356.9008 L 4085.1981 3356.1808 L 4085.2481 3356.5408 L 4085.3981 3356.5408 L 4085.3981 3355.4208 L 4085.2481 3355.4208 Z M 4084.6581 3352.6108 L 4085.0881 3352.7208 L 4085.0881 3353.3408 L 4085.0881 3353.3408 C 4084.7681 3352.8908 4084.2981 3352.5308 4083.7281 3352.5308 C 4082.8681 3352.5308 4082.3981 3353.1308 4082.3981 3353.8108 C 4082.3981 3354.4908 4082.8681 3355.0908 4083.7281 3355.0908 C 4084.2981 3355.0908 4084.7681 3354.7308 4085.0881 3354.2808 L 4085.0881 3354.2808 L 4085.0881 3354.9108 L 4084.6581 3355.0108 L 4084.6581 3355.2408 L 4085.3981 3355.1908 L 4085.3981 3354.0208 L 4085.1281 3354.0208 C 4084.7981 3354.4308 4084.2781 3354.6908 4083.7281 3354.6908 C 4083.0781 3354.6908 4082.5881 3354.3608 4082.5881 3353.8108 C 4082.5881 3353.2608 4083.0781 3352.9408 4083.7281 3352.9408 C 4084.2781 3352.9408 4084.7981 3353.1908 4085.1281 3353.6108 L 4085.3981 3353.6108 L 4085.3981 3352.4308 L 4084.6581 3352.3908 Z M 4083.6481 3349.1008 L 4083.6481 3347.6908 L 4083.4681 3347.6908 L 4083.4681 3349.1008 L 4082.2481 3349.1008 L 4082.2481 3349.2808 L 4083.4681 3349.2808 L 4083.4681 3350.6908 L 4083.6481 3350.6908 L 4083.6481 3349.2808 L 4084.8681 3349.2808 L 4084.8681 3349.1008 Z M 4085.3581 3350.6908 L 4085.3581 3347.6908 L 4085.1781 3347.6908 L 4085.1781 3350.6908 Z M 4082.8081 3346.5308 L 4082.8081 3345.2608 L 4082.4681 3345.2608 L 4082.4681 3346.6908 L 4083.8381 3346.7908 L 4083.8681 3346.6708 C 4083.8281 3346.5308 4083.8081 3346.3908 4083.8081 3346.2508 C 4083.8081 3345.8308 4084.0681 3345.5708 4084.5281 3345.5708 C 4084.9881 3345.5708 4085.2881 3345.8008 4085.2881 3346.2308 C 4085.2881 3346.3308 4085.2781 3346.4108 4085.2481 3346.5108 L 4084.9781 3346.5808 C 4084.7681 3346.6308 4084.7081 3346.6908 4084.7081 3346.8108 C 4084.7081 3346.9108 4084.7581 3346.9908 4084.8481 3347.0208 C 4085.2481 3346.9308 4085.4581 3346.6508 4085.4581 3346.2108 C 4085.4581 3345.5908 4085.0681 3345.1808 4084.4981 3345.1808 C 4083.9081 3345.1808 4083.5781 3345.5708 4083.5781 3346.1408 C 4083.5781 3346.3008 4083.5981 3346.4408 4083.6381 3346.5808 Z M 4085.5081 3344.0408 L 4082.5581 3342.0008 L 4082.4681 3342.1208 L 4085.4081 3344.1608 Z M 4083.4181 3344.3908 C 4082.7781 3344.3908 4082.6381 3344.2408 4082.6381 3344.0808 C 4082.6381 3343.9208 4082.7881 3343.7808 4083.4181 3343.7808 C 4084.0481 3343.7808 4084.1981 3343.9208 4084.1981 3344.0808 C 4084.1981 3344.2408 4084.0481 3344.3908 4083.4181 3344.3908 Z M 4082.5081 3344.0808 C 4082.5081 3344.3908 4082.7781 3344.6908 4083.4181 3344.6908 C 4084.0581 3344.6908 4084.3181 3344.3908 4084.3181 3344.0808 C 4084.3181 3343.7708 4084.0581 3343.4708 4083.4181 3343.4708 C 4082.7781 3343.4708 4082.5081 3343.7708 4082.5081 3344.0808 Z M 4084.5381 3342.4408 C 4083.8981 3342.4408 4083.7581 3342.2908 4083.7581 3342.1308 C 4083.7581 3341.9808 4083.9081 3341.8308 4084.5381 3341.8308 C 4085.1581 3341.8308 4085.3081 3341.9808 4085.3081 3342.1308 C 4085.3081 3342.2908 4085.1581 3342.4408 4084.5381 3342.4408 Z M 4083.6281 3342.1308 C 4083.6281 3342.4508 4083.8881 3342.7408 4084.5381 3342.7408 C 4085.1781 3342.7408 4085.4381 3342.4508 4085.4381 3342.1308 C 4085.4381 3341.8208 4085.1781 3341.5308 4084.5381 3341.5308 C 4083.8881 3341.5308 4083.6281 3341.8208 4083.6281 3342.1308 Z"  stroke="none" stroke-width="0.6" c_note="note_name" /></g><g c_partid="part_pcbtext" c_etype="" c_origin="4098.382,3362.735" c_rotation="90" c_mirror="0" id="gge1826" locked="0" layerid="3" c_shapetype="group" ><path c_fontsize="4.5" c_fontfamily="" c_text="R1" d="M 4093.8427 3362.7353 L 4098.1327 3362.7353 M 4093.8427 3362.7353 L 4093.8427 3360.8953 L 4094.0427 3360.2853 L 4094.2527 3360.0753 L 4094.6627 3359.8753 L 4095.0727 3359.8753 L 4095.4827 3360.0753 L 4095.6827 3360.2853 L 4095.8827 3360.8953 L 4095.8827 3362.7353 M 4095.8827 3361.3053 L 4098.1327 3359.8753 M 4094.6627 3358.5253 L 4094.4527 3358.1153 L 4093.8427 3357.4953 L 4098.1327 3357.4953" fill="none"  stroke-width="0.6" c_note="note_pre" /></g><g c_partid="part_pcbtext" c_etype="" c_origin="4037.306,3337.466" c_rotation="0" c_mirror="0" id="gge1895" locked="0" layerid="3" c_shapetype="group" display="none"><path c_fontsize="4.5" c_fontfamily="" c_text="Write Protect" d="M 4037.3059 3332.9259 L 4038.3259 3337.2159 M 4039.3559 3332.9259 L 4038.3259 3337.2159 M 4039.3559 3332.9259 L 4040.3759 3337.2159 M 4041.3959 3332.9259 L 4040.3759 3337.2159 M 4042.7459 3334.3559 L 4042.7459 3337.2159 M 4042.7459 3335.5859 L 4042.9559 3334.9659 L 4043.3559 3334.5659 L 4043.7659 3334.3559 L 4044.3859 3334.3559 M 4045.7359 3332.9259 L 4045.9359 3333.1259 L 4046.1459 3332.9259 L 4045.9359 3332.7159 L 4045.7359 3332.9259 M 4045.9359 3334.3559 L 4045.9359 3337.2159 M 4048.1059 3332.9259 L 4048.1059 3336.4059 L 4048.3059 3337.0159 L 4048.7159 3337.2159 L 4049.1259 3337.2159 M 4047.4959 3334.3559 L 4048.9259 3334.3559 M 4050.4759 3335.5859 L 4052.9359 3335.5859 L 4052.9359 3335.1759 L 4052.7259 3334.7659 L 4052.5259 3334.5659 L 4052.1159 3334.3559 L 4051.5059 3334.3559 L 4051.0959 3334.5659 L 4050.6859 3334.9659 L 4050.4759 3335.5859 L 4050.4759 3335.9959 L 4050.6859 3336.6059 L 4051.0959 3337.0159 L 4051.5059 3337.2159 L 4052.1159 3337.2159 L 4052.5259 3337.0159 L 4052.9359 3336.6059 M 4057.4359 3332.9259 L 4057.4359 3337.2159 M 4057.4359 3332.9259 L 4059.2759 3332.9259 L 4059.8859 3333.1259 L 4060.0959 3333.3359 L 4060.2959 3333.7459 L 4060.2959 3334.3559 L 4060.0959 3334.7659 L 4059.8859 3334.9659 L 4059.2759 3335.1759 L 4057.4359 3335.1759 M 4061.6459 3334.3559 L 4061.6459 3337.2159 M 4061.6459 3335.5859 L 4061.8559 3334.9659 L 4062.2559 3334.5659 L 4062.6659 3334.3559 L 4063.2859 3334.3559 M 4065.6559 3334.3559 L 4065.2459 3334.5659 L 4064.8359 3334.9659 L 4064.6359 3335.5859 L 4064.6359 3335.9959 L 4064.8359 3336.6059 L 4065.2459 3337.0159 L 4065.6559 3337.2159 L 4066.2659 3337.2159 L 4066.6759 3337.0159 L 4067.0859 3336.6059 L 4067.2959 3335.9959 L 4067.2959 3335.5859 L 4067.0859 3334.9659 L 4066.6759 3334.5659 L 4066.2659 3334.3559 L 4065.6559 3334.3559 M 4069.2559 3332.9259 L 4069.2559 3336.4059 L 4069.4559 3337.0159 L 4069.8659 3337.2159 L 4070.2759 3337.2159 M 4068.6459 3334.3559 L 4070.0759 3334.3559 M 4071.6259 3335.5859 L 4074.0859 3335.5859 L 4074.0859 3335.1759 L 4073.8759 3334.7659 L 4073.6759 3334.5659 L 4073.2659 3334.3559 L 4072.6559 3334.3559 L 4072.2459 3334.5659 L 4071.8359 3334.9659 L 4071.6259 3335.5859 L 4071.6259 3335.9959 L 4071.8359 3336.6059 L 4072.2459 3337.0159 L 4072.6559 3337.2159 L 4073.2659 3337.2159 L 4073.6759 3337.0159 L 4074.0859 3336.6059 M 4077.8859 3334.9659 L 4077.4759 3334.5659 L 4077.0659 3334.3559 L 4076.4559 3334.3559 L 4076.0459 3334.5659 L 4075.6359 3334.9659 L 4075.4359 3335.5859 L 4075.4359 3335.9959 L 4075.6359 3336.6059 L 4076.0459 3337.0159 L 4076.4559 3337.2159 L 4077.0659 3337.2159 L 4077.4759 3337.0159 L 4077.8859 3336.6059 M 4079.8559 3332.9259 L 4079.8559 3336.4059 L 4080.0559 3337.0159 L 4080.4659 3337.2159 L 4080.8759 3337.2159 M 4079.2359 3334.3559 L 4080.6659 3334.3559" fill="none"  stroke-width="0.6" c_note="note_name" /></g><g c_partid="part_pcbtext" c_etype="" c_origin="4037.306,3344.466" c_rotation="0" c_mirror="0" id="gge1901" locked="0" layerid="3" c_shapetype="group" ><path c_fontsize="4.5" c_fontfamily="" c_text="SW" d="M 4040.166 3340.5355 L 4039.756 3340.1255 L 4039.146 3339.9255 L 4038.326 3339.9255 L 4037.716 3340.1255 L 4037.306 3340.5355 L 4037.306 3340.9455 L 4037.506 3341.3555 L 4037.716 3341.5655 L 4038.126 3341.7655 L 4039.356 3342.1755 L 4039.756 3342.3755 L 4039.966 3342.5855 L 4040.166 3342.9955 L 4040.166 3343.6055 L 4039.756 3344.0155 L 4039.146 3344.2155 L 4038.326 3344.2155 L 4037.716 3344.0155 L 4037.306 3343.6055 M 4041.516 3339.9255 L 4042.546 3344.2155 M 4043.566 3339.9255 L 4042.546 3344.2155 M 4043.566 3339.9255 L 4044.586 3344.2155 M 4045.606 3339.9255 L 4044.586 3344.2155" fill="none"  stroke-width="0.6" c_note="note_pre" /></g><path d="M 4095.5537 3359.3992 A 3.5433 3.5433 0 0 0 4095.5537 3366.4858" locked="0"  fill="none" stroke-width="1" c_helper_type="arc2" net="S$391" layerid="3" id="gge57" /><circle cx="4094.766" cy="3338.927" r="0.787" stroke-width="1.5748" fill="none" layerid="3" id="gge51" locked="0"  /><polyline points="4168.6601 3334.1649 4196.2187 3306.6058" stroke-width="1"  stroke-linecap="round" fill="none" layerid="10" net="S$9718" id="gge11550" locked="0" /><polyline points="4023.6899 3334.3101 4169.8501 3334.3101 4184.2998 3319.8501" stroke-width="1"  stroke-linecap="round" fill="none" layerid="10" net="S$9718" id="gge11226" locked="0" /><polyline points="4044.2 3306.7821 4276.8446 3306.7125 4276.8446 3417.2388 4041.8985 3417.2388" stroke-width="1"  stroke-linecap="round" fill="none" layerid="10" net="S$3391" id="gge3390" locked="0" /><polyline points="4022.7056 3389.9163 4168.867 3389.9163 4196.426 3417.4752" stroke-width="1"  stroke-linecap="round" fill="none" layerid="10" net="S$9718" id="gge9727" locked="0" /><path d="M4044.3022,3306.8075 A16.3046,16.3046 0 0 0 4027.8944,3318.4253" locked="0"  fill="none" stroke-width="1" c_helper_type="arc2" net="S$4412" layerid="10" id="gge4411" /><path d="M4044.0188,3417.1819 A16.3046,16.3046 0 0 1 4027.6115,3405.5657" locked="0"  fill="none" stroke-width="1" c_helper_type="arc2" net="S$4412" layerid="10" id="gge9419" /><path d="M4028.062,3317.8576 A135.4874,135.4874 0 0 0 4027.6782,3405.895" locked="0"  fill="none" stroke-width="1" c_helper_type="arc2" net="S$3368" layerid="10" id="gge3367" /></svg>